<svg xmlns="http://www.w3.org/2000/svg" version="1.1" xmlns:xlink="http://www.w3.org/1999/xlink" xmlns:svgjs="http://svgjs.dev/svgjs" width="1000" height="1000"><g clip-path="url(#SvgjsClipPath1161)"><rect width="1000" height="1000" fill="#000000"></rect><g transform="matrix(7,0,0,7,150,153.5)"><svg xmlns="http://www.w3.org/2000/svg" version="1.1" xmlns:xlink="http://www.w3.org/1999/xlink" xmlns:svgjs="http://svgjs.dev/svgjs" width="100px" height="99.17px"><svg xmlns="http://www.w3.org/2000/svg" viewBox="134.18 -199.17 100 99.17" width="100px" height="99.17px"><path d="M 167.511 -116.53 C 165.731 -116.53 163.963 -116.68 162.225 -116.97 C 163.031 -115.91 163.923 -114.9 164.894 -113.93 C 169.998 -108.88 176.434 -106.01 184.179 -106.01 C 191.925 -106.01 198.361 -108.88 203.466 -113.93 C 204.436 -114.9 205.328 -115.91 206.134 -116.97 C 204.395 -116.68 202.625 -116.53 200.844 -116.53 C 194.929 -116.53 189.13 -118.2 184.184 -121.01 C 179.237 -118.2 173.433 -116.53 167.511 -116.53 Z M 211.452 -133.05 C 211.452 -137.13 210.641 -140.84 209.117 -144.19 C 208.674 -143.69 208.218 -143.2 207.75 -142.74 C 204.992 -140.01 201.605 -137.7 197.856 -136.03 C 196.17 -132.31 193.848 -128.95 191.089 -126.21 C 190.621 -125.75 190.135 -125.29 189.632 -124.85 C 192.999 -123.34 196.738 -122.54 200.844 -122.54 C 204.116 -122.54 207.155 -123.05 209.958 -124.02 C 210.937 -126.8 211.452 -129.81 211.452 -133.05 Z M 203.466 -152.19 C 202.493 -153.16 201.471 -154.04 200.402 -154.84 C 200.694 -153.11 200.846 -151.35 200.846 -149.58 C 200.846 -147.82 200.694 -146.07 200.404 -144.34 C 201.473 -145.14 202.494 -146.03 203.466 -146.99 C 204.303 -147.82 205.082 -148.69 205.797 -149.59 C 205.082 -150.49 204.303 -151.36 203.466 -152.19 Z M 143.944 -126.21 C 138.083 -132.03 134.18 -140.67 134.18 -149.58 C 134.18 -158.5 138.083 -167.14 143.944 -172.96 C 146.702 -175.69 150.09 -178 153.837 -179.67 C 155.525 -183.39 157.849 -186.75 160.61 -189.49 C 166.476 -195.31 175.192 -199.17 184.179 -199.17 C 193.168 -199.17 201.883 -195.31 207.75 -189.49 C 210.509 -186.76 212.834 -183.39 214.52 -179.67 C 218.274 -178 221.664 -175.69 224.423 -172.96 C 230.286 -167.14 234.18 -158.5 234.18 -149.58 C 234.18 -140.67 230.286 -132.03 224.423 -126.21 C 221.664 -123.47 218.272 -121.17 214.516 -119.49 C 212.83 -115.78 210.507 -112.42 207.75 -109.68 C 201.883 -103.87 193.168 -100 184.179 -100 C 175.192 -100 166.476 -103.87 160.61 -109.68 C 157.852 -112.42 155.528 -115.78 153.842 -119.5 C 150.092 -121.17 146.703 -123.47 143.944 -126.21 Z M 167.511 -182.64 C 173.433 -182.64 179.237 -180.96 184.184 -178.16 C 189.13 -180.96 194.929 -182.64 200.844 -182.64 C 202.629 -182.64 204.402 -182.49 206.145 -182.2 C 205.336 -183.26 204.442 -184.28 203.466 -185.25 C 198.361 -190.3 191.925 -193.16 184.179 -193.16 C 176.429 -193.16 169.998 -190.3 164.894 -185.25 C 163.918 -184.28 163.023 -183.26 162.214 -182.2 C 163.956 -182.49 165.728 -182.64 167.511 -182.64 Z M 191.089 -172.96 C 193.846 -170.22 196.168 -166.86 197.854 -163.14 C 201.604 -161.47 204.991 -159.17 207.75 -156.44 C 208.218 -155.97 208.674 -155.49 209.117 -154.99 C 210.641 -158.33 211.452 -162.04 211.452 -166.11 C 211.452 -169.35 210.938 -172.37 209.96 -175.15 C 207.156 -176.12 204.117 -176.63 200.844 -176.63 C 196.737 -176.63 192.998 -175.82 189.631 -174.31 C 190.134 -173.87 190.621 -173.42 191.089 -172.96 Z M 217.513 -133.05 C 217.513 -131.28 217.36 -129.53 217.067 -127.8 C 218.142 -128.6 219.167 -129.49 220.142 -130.46 C 225.243 -135.52 228.123 -141.9 228.123 -149.58 C 228.123 -157.27 225.243 -163.65 220.142 -168.71 C 219.167 -169.68 218.142 -170.56 217.067 -171.37 C 217.36 -169.64 217.513 -167.88 217.513 -166.11 C 217.513 -160.24 215.824 -154.49 212.996 -149.59 C 215.824 -144.68 217.513 -138.93 217.513 -133.05 Z M 186.809 -130.46 C 187.781 -131.42 188.673 -132.44 189.479 -133.5 C 187.738 -133.21 185.964 -133.06 184.179 -133.06 C 182.401 -133.06 180.632 -133.21 178.894 -133.5 C 179.7 -132.44 180.592 -131.42 181.562 -130.46 C 182.401 -129.63 183.276 -128.86 184.186 -128.15 C 185.097 -128.86 185.97 -129.63 186.809 -130.46 Z M 194.79 -149.58 C 194.79 -152.83 194.276 -155.84 193.297 -158.62 C 190.493 -159.59 187.453 -160.1 184.179 -160.1 C 180.908 -160.1 177.872 -159.6 175.072 -158.63 C 174.09 -155.85 173.574 -152.83 173.574 -149.58 C 173.574 -146.34 174.09 -143.33 175.069 -140.55 C 177.872 -139.58 180.909 -139.07 184.179 -139.07 C 187.454 -139.07 190.495 -139.58 193.299 -140.55 C 194.277 -143.33 194.79 -146.34 194.79 -149.58 Z M 164.894 -152.19 C 164.056 -151.36 163.278 -150.49 162.562 -149.59 C 163.278 -148.69 164.056 -147.82 164.894 -146.99 C 165.867 -146.02 166.887 -145.14 167.957 -144.34 C 167.666 -146.06 167.514 -147.82 167.514 -149.58 C 167.514 -151.35 167.667 -153.11 167.959 -154.84 C 166.89 -154.04 165.868 -153.16 164.894 -152.19 Z M 156.907 -133.05 C 156.907 -129.81 157.421 -126.8 158.4 -124.02 C 161.202 -123.05 164.24 -122.54 167.511 -122.54 C 171.623 -122.54 175.366 -123.34 178.737 -124.85 C 178.233 -125.29 177.746 -125.75 177.277 -126.21 C 174.52 -128.95 172.197 -132.31 170.509 -136.03 C 166.757 -137.7 163.369 -140 160.61 -142.74 C 160.142 -143.2 159.685 -143.69 159.242 -144.19 C 157.718 -140.84 156.907 -137.13 156.907 -133.05 Z M 186.809 -168.71 C 185.97 -169.54 185.097 -170.31 184.186 -171.02 C 183.276 -170.31 182.401 -169.54 181.562 -168.71 C 180.592 -167.74 179.7 -166.73 178.894 -165.67 C 180.632 -165.96 182.401 -166.11 184.179 -166.11 C 185.964 -166.11 187.738 -165.96 189.48 -165.67 C 188.673 -166.73 187.781 -167.74 186.809 -168.71 Z M 167.511 -176.63 C 164.239 -176.63 161.201 -176.12 158.398 -175.15 C 157.42 -172.37 156.907 -169.35 156.907 -166.11 C 156.907 -162.04 157.718 -158.33 159.242 -154.99 C 159.686 -155.49 160.142 -155.97 160.61 -156.44 C 163.37 -159.17 166.76 -161.47 170.512 -163.15 C 172.199 -166.86 174.522 -170.22 177.277 -172.96 C 177.746 -173.42 178.233 -173.87 178.738 -174.31 C 175.367 -175.82 171.624 -176.63 167.511 -176.63 Z M 148.23 -168.71 C 143.132 -163.65 140.241 -157.26 140.241 -149.58 C 140.241 -141.9 143.132 -135.52 148.23 -130.46 C 149.201 -129.5 150.222 -128.61 151.29 -127.81 C 151 -129.53 150.847 -131.29 150.847 -133.05 C 150.847 -138.93 152.536 -144.68 155.364 -149.59 C 152.536 -154.49 150.847 -160.24 150.847 -166.11 C 150.847 -167.88 151 -169.63 151.29 -171.36 C 150.222 -170.56 149.201 -169.67 148.23 -168.71 Z" style="fill: rgb(255, 255, 255);" id="object-1"></path></svg></svg></g></g><defs><clipPath id="SvgjsClipPath1161"><rect width="1000" height="1000" x="0" y="0" rx="500" ry="500"></rect></clipPath></defs></svg>